<?xml version="1.0" encoding="UTF-8"?>
<!DOCTYPE svg PUBLIC "-//W3C//DTD SVG 1.1//EN" "http://www.w3.org/Graphics/SVG/1.1/DTD/svg11.dtd">
<svg xmlns="http://www.w3.org/2000/svg" version="1.1" width="512px" height="512px" style="shape-rendering:geometricPrecision; text-rendering:geometricPrecision; image-rendering:optimizeQuality; fill-rule:evenodd; clip-rule:evenodd" xmlns:xlink="http://www.w3.org/1999/xlink">
<g><path style="opacity:0.976" fill="#030202" d="M 210.5,-0.5 C 225.167,-0.5 239.833,-0.5 254.5,-0.5C 296.334,3.7506 334.001,18.5839 367.5,44C 384.854,59.1913 398.187,77.3579 407.5,98.5C 424.981,83.5196 442.315,68.353 459.5,53C 472.594,44.7211 485.927,44.3878 499.5,52C 505.141,56.8054 509.141,62.6387 511.5,69.5C 511.5,75.1667 511.5,80.8333 511.5,86.5C 509.631,90.5661 507.464,94.5661 505,98.5C 493.833,111 482.667,123.5 471.5,136C 468.408,136.736 465.408,136.569 462.5,135.5C 460.616,132.099 460.116,128.433 461,124.5C 473.083,111.754 484.417,98.4209 495,84.5C 497.947,76.9826 496.447,70.6492 490.5,65.5C 483.145,60.069 475.812,60.2357 468.5,66C 405.333,121.167 342.167,176.333 279,231.5C 278.333,232.5 278.333,233.5 279,234.5C 291.368,247.035 303.868,259.369 316.5,271.5C 318.951,275.486 322.284,277.986 326.5,279C 365.264,234.146 404.264,189.479 443.5,145C 446.888,144.341 450.221,144.508 453.5,145.5C 455.967,148.98 456.134,152.647 454,156.5C 442.706,170.129 431.039,183.463 419,196.5C 416.368,219.628 412.868,242.628 408.5,265.5C 408.947,270.726 410.781,275.392 414,279.5C 428.291,293.491 442.624,307.491 457,321.5C 477.638,346.356 483.305,374.356 474,405.5C 466.977,429.722 453.81,449.888 434.5,466C 414.981,481.51 393.148,492.677 369,499.5C 365.105,499.475 362.272,497.808 360.5,494.5C 361.063,491.523 362.063,488.689 363.5,486C 385.728,478.722 406.061,468.055 424.5,454C 427.704,450.964 430.704,447.797 433.5,444.5C 443.38,435.764 450.547,425.097 455,412.5C 463.222,393.598 464.555,374.265 459,354.5C 456.174,348.178 452.841,342.178 449,336.5C 435.634,321.467 421.301,307.467 406,294.5C 400.283,288.113 396.283,280.779 394,272.5C 393.833,269.833 393.667,267.167 393.5,264.5C 395.587,249.645 397.92,234.812 400.5,220C 400.333,219.167 400.167,218.333 400,217.5C 396.287,221.708 392.787,226.041 389.5,230.5C 369.365,252.806 349.365,275.306 329.5,298C 314.57,303.8 299.903,310.133 285.5,317C 292.014,328.332 290.347,338.332 280.5,347C 273.799,350.302 266.799,351.302 259.5,350C 257.266,358.569 252.932,365.902 246.5,372C 228.986,382.064 210.319,389.398 190.5,394C 181.035,397.12 171.368,398.787 161.5,399C 159.129,397.257 157.795,394.923 157.5,392C 162.657,366.195 170.824,341.361 182,317.5C 188.177,307.493 197.011,301.16 208.5,298.5C 204.966,284.736 209.633,274.903 222.5,269C 229.146,267.779 235.313,268.946 241,272.5C 247.52,257.95 253.853,243.283 260,228.5C 300.742,191.919 341.909,155.919 383.5,120.5C 387.562,117.105 391.229,113.438 394.5,109.5C 383.656,80.1526 364.656,57.6526 337.5,42C 293.213,17.5101 246.213,9.34343 196.5,17.5C 132.58,27.4397 81.5798,58.273 43.5,110C 40.5184,110.498 37.5184,110.665 34.5,110.5C 31.8572,107.66 31.0239,104.327 32,100.5C 57.0078,64.1652 89.8412,37.3318 130.5,20C 156.331,9.37623 182.998,2.54289 210.5,-0.5 Z"/></g>
<g><path style="opacity:1" fill="#fad8a4" d="M 383.5,120.5 C 382.024,111.577 378.857,103.244 374,95.5C 354.924,64.4348 328.091,42.9348 293.5,31C 262.167,19.2493 229.834,14.7493 196.5,17.5C 246.213,9.34343 293.213,17.5101 337.5,42C 364.656,57.6526 383.656,80.1526 394.5,109.5C 391.229,113.438 387.562,117.105 383.5,120.5 Z"/></g>
<g><path style="opacity:1" fill="#fde8c7" d="M 383.5,120.5 C 341.909,155.919 300.742,191.919 260,228.5C 253.853,243.283 247.52,257.95 241,272.5C 235.313,268.946 229.146,267.779 222.5,269C 209.633,274.903 204.966,284.736 208.5,298.5C 197.011,301.16 188.177,307.493 182,317.5C 170.824,341.361 162.657,366.195 157.5,392C 157.795,394.923 159.129,397.257 161.5,399C 171.368,398.787 181.035,397.12 190.5,394C 210.319,389.398 228.986,382.064 246.5,372C 252.932,365.902 257.266,358.569 259.5,350C 266.799,351.302 273.799,350.302 280.5,347C 290.347,338.332 292.014,328.332 285.5,317C 299.903,310.133 314.57,303.8 329.5,298C 349.365,275.306 369.365,252.806 389.5,230.5C 387.451,243.16 385.284,255.826 383,268.5C 382.333,272.833 382.333,277.167 383,281.5C 385.079,285.993 387.412,290.326 390,294.5C 405.025,308.525 419.691,322.859 434,337.5C 450.875,358.203 455.875,381.536 449,407.5C 445.447,420.595 440.28,432.928 433.5,444.5C 430.704,447.797 427.704,450.964 424.5,454C 406.061,468.055 385.728,478.722 363.5,486C 362.063,488.689 361.063,491.523 360.5,494.5C 356.127,495.343 351.793,496.343 347.5,497.5C 345.664,494.174 342.83,492.174 339,491.5C 254.689,506.384 179.855,486.551 114.5,432C 59.6425,379.792 26.8092,315.958 16,240.5C 10.9344,201.731 16.4344,164.565 32.5,129C 31.7946,126.458 30.4613,124.292 28.5,122.5C 30.5133,118.473 32.5133,114.473 34.5,110.5C 37.5184,110.665 40.5184,110.498 43.5,110C 81.5798,58.273 132.58,27.4397 196.5,17.5C 229.834,14.7493 262.167,19.2493 293.5,31C 328.091,42.9348 354.924,64.4348 374,95.5C 378.857,103.244 382.024,111.577 383.5,120.5 Z"/></g>
<g><path style="opacity:1" fill="#8b7f89" d="M 490.5,65.5 C 490.507,71.4775 488.673,76.8109 485,81.5C 429.833,144.667 374.667,207.833 319.5,271C 318.552,271.483 317.552,271.649 316.5,271.5C 303.868,259.369 291.368,247.035 279,234.5C 278.333,233.5 278.333,232.5 279,231.5C 342.167,176.333 405.333,121.167 468.5,66C 475.812,60.2357 483.145,60.069 490.5,65.5 Z"/></g>
<g><path style="opacity:1" fill="#050402" d="M 265.5,64.5 C 289.914,61.4456 306.08,71.4456 314,94.5C 316.686,115.635 308.519,130.802 289.5,140C 263.587,146.706 246.087,137.54 237,112.5C 233.944,88.9326 243.444,72.9326 265.5,64.5 Z"/></g>
<g><path style="opacity:1" fill="#796f77" d="M 490.5,65.5 C 496.447,70.6492 497.947,76.9826 495,84.5C 484.417,98.4209 473.083,111.754 461,124.5C 460.116,128.433 460.616,132.099 462.5,135.5C 459.5,138.833 456.5,142.167 453.5,145.5C 450.221,144.508 446.888,144.341 443.5,145C 404.264,189.479 365.264,234.146 326.5,279C 322.284,277.986 318.951,275.486 316.5,271.5C 317.552,271.649 318.552,271.483 319.5,271C 374.667,207.833 429.833,144.667 485,81.5C 488.673,76.8109 490.507,71.4775 490.5,65.5 Z"/></g>
<g><path style="opacity:1" fill="#050403" d="M 160.5,73.5 C 190.04,73.5425 205.207,88.2092 206,117.5C 199.586,144.232 182.753,155.399 155.5,151C 135.236,142.653 126.07,127.486 128,105.5C 132.781,88.5514 143.614,77.8847 160.5,73.5 Z"/></g>
<g><path style="opacity:1" fill="#fdda00" d="M 278.5,79.5 C 288.885,90.464 291.385,103.131 286,117.5C 284.053,121.276 281.553,124.61 278.5,127.5C 257.94,126.76 249.107,116.094 252,95.5C 256.911,83.6294 265.744,78.2961 278.5,79.5 Z"/></g>
<g><path style="opacity:1" fill="#f7ba00" d="M 278.5,79.5 C 291.636,81.8046 298.636,89.6379 299.5,103C 298.67,116.512 291.67,124.679 278.5,127.5C 281.553,124.61 284.053,121.276 286,117.5C 291.385,103.131 288.885,90.464 278.5,79.5 Z"/></g>
<g><path style="opacity:1" fill="#fc9800" d="M 162.5,89.5 C 167.223,88.5531 171.056,89.8864 174,93.5C 182.63,106.806 182.63,120.139 174,133.5C 173.167,134.333 172.333,135.167 171.5,136C 168.183,136.498 164.85,136.665 161.5,136.5C 149.497,133.324 143.164,125.49 142.5,113C 143.282,100.058 149.949,92.2247 162.5,89.5 Z"/></g>
<g><path style="opacity:1" fill="#e48200" d="M 162.5,89.5 C 174.281,87.4723 183.114,91.8056 189,102.5C 194.377,119.244 188.877,130.744 172.5,137C 168.642,137.81 164.976,137.643 161.5,136.5C 164.85,136.665 168.183,136.498 171.5,136C 172.333,135.167 173.167,134.333 174,133.5C 182.63,120.139 182.63,106.806 174,93.5C 171.056,89.8864 167.223,88.5531 162.5,89.5 Z"/></g>
<g><path style="opacity:0.962" fill="#020101" d="M 28.5,122.5 C 30.4613,124.292 31.7946,126.458 32.5,129C 16.4344,164.565 10.9344,201.731 16,240.5C 26.8092,315.958 59.6425,379.792 114.5,432C 179.855,486.551 254.689,506.384 339,491.5C 342.83,492.174 345.664,494.174 347.5,497.5C 347.764,502.074 345.764,505.241 341.5,507C 331.379,508.678 321.379,510.178 311.5,511.5C 295.833,511.5 280.167,511.5 264.5,511.5C 151.266,497.44 71.7657,438.107 26,333.5C 12.4543,301.974 3.62095,269.307 -0.5,235.5C -0.5,220.833 -0.5,206.167 -0.5,191.5C 1.85755,170.901 7.02422,150.901 15,131.5C 16.1341,125.851 19.4674,122.517 25,121.5C 26.2559,121.648 27.4226,121.982 28.5,122.5 Z"/></g>
<g><path style="opacity:1" fill="#050303" d="M 89.5,154.5 C 112.178,152.244 127.678,161.577 136,182.5C 140.417,208.192 130.25,224.692 105.5,232C 80.2084,234.37 64.7084,223.203 59,198.5C 58.5414,176.404 68.708,161.737 89.5,154.5 Z"/></g>
<g><path style="opacity:1" fill="#fc6369" d="M 104.5,170.5 C 103.761,170.369 103.094,170.536 102.5,171C 115.335,185.697 115.668,200.697 103.5,216C 103.728,216.399 104.062,216.565 104.5,216.5C 86.6794,219.385 76.3461,211.718 73.5,193.5C 76.3277,175.304 86.661,167.638 104.5,170.5 Z"/></g>
<g><path style="opacity:1" fill="#f93d4a" d="M 104.5,170.5 C 117.994,175.481 123.827,185.148 122,199.5C 119.574,208.76 113.741,214.427 104.5,216.5C 104.062,216.565 103.728,216.399 103.5,216C 115.668,200.697 115.335,185.697 102.5,171C 103.094,170.536 103.761,170.369 104.5,170.5 Z"/></g>
<g><path style="opacity:1" fill="#fbd8a4" d="M 433.5,444.5 C 440.28,432.928 445.447,420.595 449,407.5C 455.875,381.536 450.875,358.203 434,337.5C 419.691,322.859 405.025,308.525 390,294.5C 387.412,290.326 385.079,285.993 383,281.5C 382.333,277.167 382.333,272.833 383,268.5C 385.284,255.826 387.451,243.16 389.5,230.5C 392.787,226.041 396.287,221.708 400,217.5C 400.167,218.333 400.333,219.167 400.5,220C 397.92,234.812 395.587,249.645 393.5,264.5C 393.667,267.167 393.833,269.833 394,272.5C 396.283,280.779 400.283,288.113 406,294.5C 421.301,307.467 435.634,321.467 449,336.5C 452.841,342.178 456.174,348.178 459,354.5C 464.555,374.265 463.222,393.598 455,412.5C 450.547,425.097 443.38,435.764 433.5,444.5 Z"/></g>
<g><path style="opacity:1" fill="#e1dde1" d="M 268.5,246.5 C 283.428,259.76 297.761,273.76 311.5,288.5C 299.104,294.57 286.438,299.737 273.5,304C 266.456,297.291 259.789,290.291 253.5,283C 258.41,270.764 263.41,258.597 268.5,246.5 Z"/></g>
<g><path style="opacity:1" fill="#030403" d="M 111.5,258.5 C 142.161,256.668 157.995,271.001 159,301.5C 152.587,328.294 135.754,339.461 108.5,335C 88.5455,326.939 79.3788,312.105 81,290.5C 84.9418,273.728 95.1085,263.062 111.5,258.5 Z"/></g>
<g><path style="opacity:1" fill="#00dafc" d="M 124.5,273.5 C 137.704,288.98 137.704,304.48 124.5,320C 121.183,320.498 117.85,320.665 114.5,320.5C 100.52,315.988 94.3536,306.321 96,291.5C 100.988,277.941 110.488,271.941 124.5,273.5 Z"/></g>
<g><path style="opacity:1" fill="#00c9f4" d="M 124.5,273.5 C 139.124,277.635 145.624,287.302 144,302.5C 139.046,316.88 129.213,322.88 114.5,320.5C 117.85,320.665 121.183,320.498 124.5,320C 137.704,304.48 137.704,288.98 124.5,273.5 Z"/></g>
<g><path style="opacity:1" fill="#f8d600" d="M 268.5,321.5 C 266.746,325.588 263.746,328.255 259.5,329.5C 247.535,318.035 235.702,306.369 224,294.5C 220.752,286.758 223.252,283.258 231.5,284C 244.035,296.368 256.369,308.868 268.5,321.5 Z"/></g>
<g><path style="opacity:1" fill="#ba653f" d="M 239.5,331.5 C 238.342,342.656 233.008,351.156 223.5,357C 209.155,363.392 194.488,368.892 179.5,373.5C 178.702,373.043 178.369,372.376 178.5,371.5C 182.229,353.386 188.729,336.386 198,320.5C 204.588,314.193 212.422,311.693 221.5,313C 227.703,319.035 233.703,325.202 239.5,331.5 Z"/></g>
<g><path style="opacity:1" fill="#f5b800" d="M 268.5,321.5 C 275.039,324.927 276.039,329.427 271.5,335C 266.127,336.147 262.127,334.313 259.5,329.5C 263.746,328.255 266.746,325.588 268.5,321.5 Z"/></g>
<g><path style="opacity:1" fill="#9d5437" d="M 239.5,331.5 C 245.205,334.919 247.038,339.919 245,346.5C 242.699,354.122 238.199,359.955 231.5,364C 213.195,372.223 194.529,377.89 175.5,381C 176.29,377.644 177.29,374.477 178.5,371.5C 178.369,372.376 178.702,373.043 179.5,373.5C 194.488,368.892 209.155,363.392 223.5,357C 233.008,351.156 238.342,342.656 239.5,331.5 Z"/></g>
<g><path style="opacity:1" fill="#030302" d="M 373.5,341.5 C 397.548,338.762 413.382,348.762 421,371.5C 423.846,396.333 413.346,412.167 389.5,419C 365.582,421.075 350.416,410.575 344,387.5C 342,364.486 351.833,349.153 373.5,341.5 Z"/></g>
<g><path style="opacity:1" fill="#009c64" d="M 386.5,356.5 C 399.971,372.752 399.638,388.752 385.5,404.5C 365.488,403.84 356.655,393.507 359,373.5C 363.967,361.031 373.134,355.365 386.5,356.5 Z"/></g>
<g><path style="opacity:1" fill="#008652" d="M 386.5,356.5 C 402.115,360.972 408.615,371.306 406,387.5C 402.565,397.296 395.732,402.963 385.5,404.5C 399.638,388.752 399.971,372.752 386.5,356.5 Z"/></g>
<g><path style="opacity:1" fill="#040403" d="M 272.5,373.5 C 303.672,371.182 319.839,385.515 321,416.5C 315.909,441.255 300.742,452.755 275.5,451C 252.539,444.6 241.705,429.433 243,405.5C 246.837,389.168 256.67,378.502 272.5,373.5 Z"/></g>
<g><path style="opacity:1" fill="#00dda5" d="M 285.5,388.5 C 296.966,401.318 298.466,415.318 290,430.5C 287.96,432.37 286.127,434.37 284.5,436.5C 268.148,436.149 259.148,427.816 257.5,411.5C 258.903,399.197 265.57,391.363 277.5,388C 280.367,387.199 283.034,387.366 285.5,388.5 Z"/></g>
<g><path style="opacity:1" fill="#00c485" d="M 285.5,388.5 C 298.655,390.822 305.655,398.656 306.5,412C 305.316,425.684 297.983,433.851 284.5,436.5C 286.127,434.37 287.96,432.37 290,430.5C 298.466,415.318 296.966,401.318 285.5,388.5 Z"/></g>
</svg>
