<?xml version="1.0" encoding="UTF-8"?>
<!DOCTYPE svg PUBLIC "-//W3C//DTD SVG 1.1//EN" "http://www.w3.org/Graphics/SVG/1.1/DTD/svg11.dtd">
<svg xmlns="http://www.w3.org/2000/svg" version="1.1" width="512px" height="512px" style="shape-rendering:geometricPrecision; text-rendering:geometricPrecision; image-rendering:optimizeQuality; fill-rule:evenodd; clip-rule:evenodd" xmlns:xlink="http://www.w3.org/1999/xlink">
<g><path style="opacity:0.988" fill="#010101" d="M 483.5,217.5 C 480.438,217.159 478.272,215.492 477,212.5C 476.667,191.167 476.333,169.833 476,148.5C 458.478,142.27 440.978,135.937 423.5,129.5C 424.463,137.114 423.296,144.447 420,151.5C 406.254,162.413 392.087,172.747 377.5,182.5C 376.167,223.5 376.167,264.5 377.5,305.5C 397.975,320.808 418.309,336.308 438.5,352C 447.428,359.114 450.594,368.281 448,379.5C 444.648,392.85 436.148,400.683 422.5,403C 417.623,407.175 416.29,412.341 418.5,418.5C 425.503,424.005 432.003,430.005 438,436.5C 440.969,444.906 442.802,453.572 443.5,462.5C 454.281,465.761 464.948,469.427 475.5,473.5C 476.333,415.836 476.833,358.17 477,300.5C 478.571,298.077 480.737,296.744 483.5,296.5C 486.325,296.081 488.491,297.081 490,299.5C 490.667,362.167 490.667,424.833 490,487.5C 487.091,490.394 483.591,491.227 479.5,490C 442.92,476.874 406.253,464.041 369.5,451.5C 331.629,464.901 293.629,477.901 255.5,490.5C 217.371,477.901 179.371,464.901 141.5,451.5C 104.818,464.228 68.1516,477.061 31.5,490C 27.4087,491.227 23.9087,490.394 21,487.5C 20.3333,459.833 20.3333,432.167 21,404.5C 22.5088,402.081 24.6755,401.081 27.5,401.5C 30.1955,401.933 32.3621,403.266 34,405.5C 34.3333,428.167 34.6667,450.833 35,473.5C 44.7875,469.737 54.6208,466.07 64.5,462.5C 68.179,456.641 69.679,450.307 69,443.5C 64.273,437.103 59.9396,430.436 56,423.5C 53.554,417.734 54.2207,412.401 58,407.5C 61.6667,404.5 65.3333,401.5 69,398.5C 70.2594,388.088 71.9261,377.755 74,367.5C 79.2988,360.873 85.7988,355.706 93.5,352C 96.4285,348.743 97.2618,344.909 96,340.5C 94.1405,334.64 90.3072,330.807 84.5,329C 75.9085,328.952 68.7418,325.786 63,319.5C 60.0881,313.342 56.9215,307.342 53.5,301.5C 47.772,297.108 41.772,293.108 35.5,289.5C 34.6668,317.494 34.1668,345.494 34,373.5C 32.8415,376.493 30.6748,378.16 27.5,378.5C 24.9009,378.451 22.7342,377.451 21,375.5C 20.3333,296.833 20.3333,218.167 21,139.5C 22.214,137.951 23.714,136.785 25.5,136C 63.2423,122.864 100.909,109.53 138.5,96C 140.5,95.3333 142.5,95.3333 144.5,96C 157.093,100.308 169.593,104.808 182,109.5C 178.23,81.4757 186.396,57.6423 206.5,38C 230.471,19.281 256.804,15.281 285.5,26C 310.596,38.0043 325.096,57.8376 329,85.5C 329.442,93.5245 329.442,101.524 329,109.5C 341.407,104.808 353.907,100.308 366.5,96C 368.5,95.3333 370.5,95.3333 372.5,96C 410.941,109.388 449.274,123.055 487.5,137C 488.333,137.833 489.167,138.667 490,139.5C 490.667,164.167 490.667,188.833 490,213.5C 488.728,216.222 486.561,217.556 483.5,217.5 Z"/></g>
<g><path style="opacity:1" fill="#fc5614" d="M 245.5,34.5 C 280.631,32.4671 303.464,48.1337 314,81.5C 316.551,101.074 313.551,119.74 305,137.5C 292.539,163.451 276.039,186.451 255.5,206.5C 226.536,179.587 207.036,146.92 197,108.5C 192.404,69.9877 208.57,45.321 245.5,34.5 Z"/></g>
<g><path style="opacity:1" fill="#050201" d="M 247.5,58.5 C 268.237,56.6115 282.404,65.2781 290,84.5C 293.409,107.733 283.909,122.567 261.5,129C 238.949,130.791 225.116,120.625 220,98.5C 219.508,78.4721 228.675,65.1388 247.5,58.5 Z"/></g>
<g><path style="opacity:1" fill="#e1edfa" d="M 249.5,72.5 C 261.706,71.0173 270.539,75.684 276,86.5C 279.152,99.0604 274.985,108.227 263.5,114C 249.014,117.674 239.181,112.507 234,98.5C 232.804,85.8959 237.971,77.2292 249.5,72.5 Z"/></g>
<g><path style="opacity:1" fill="#a3df3a" d="M 133.5,112.5 C 134.498,135.327 134.831,158.327 134.5,181.5C 125.733,183.596 117.066,185.762 108.5,188C 107.584,187.626 106.75,187.126 106,186.5C 103.918,173.086 96.0848,165.919 82.5,165C 80.9716,163.352 80.3049,161.352 80.5,159C 81.8806,148.928 84.2139,139.095 87.5,129.5C 102.932,123.804 118.265,118.137 133.5,112.5 Z"/></g>
<g><path style="opacity:1" fill="#78cc00" d="M 148.5,113.5 C 161.802,117.378 174.802,122.045 187.5,127.5C 200.667,162.821 220.833,193.488 248,219.5C 248.499,224.489 248.666,229.489 248.5,234.5C 242.491,234.334 236.491,234.501 230.5,235C 223.427,237.072 218.594,241.572 216,248.5C 216.014,257.241 216.681,265.907 218,274.5C 214.404,279.88 210.238,284.714 205.5,289C 204.167,289.667 202.833,289.667 201.5,289C 194.333,280.5 187.167,272 180,263.5C 179.333,261.167 179.333,258.833 180,256.5C 187.962,240.973 187.296,225.973 178,211.5C 168.637,201.803 158.97,192.47 149,183.5C 148.5,160.169 148.333,136.836 148.5,113.5 Z"/></g>
<g><path style="opacity:1" fill="#a3e03a" d="M 361.5,112.5 C 362.497,132.993 362.831,153.66 362.5,174.5C 347.873,176.229 335.707,182.562 326,193.5C 321.043,200.126 315.709,206.46 310,212.5C 308.08,215.339 306.413,218.339 305,221.5C 304.914,227.884 305.247,234.217 306,240.5C 300.776,244.723 295.276,248.556 289.5,252C 287.365,252.635 285.365,252.301 283.5,251C 276.97,246.304 270.303,241.804 263.5,237.5C 262.336,231.528 262.17,225.528 263,219.5C 290.606,193.294 310.939,162.294 324,126.5C 336.621,121.907 349.121,117.241 361.5,112.5 Z"/></g>
<g><path style="opacity:1" fill="#77cb00" d="M 376.5,113.5 C 386.833,116.833 397.167,120.167 407.5,123.5C 408.744,129.785 409.244,136.118 409,142.5C 398.64,150.36 388.14,158.027 377.5,165.5C 376.5,148.179 376.167,130.846 376.5,113.5 Z"/></g>
<g><path style="opacity:1" fill="#bee0fe" d="M 483.5,217.5 C 483.5,225.5 483.5,233.5 483.5,241.5C 480.737,241.744 478.571,243.077 477,245.5C 476.333,253.167 476.333,260.833 477,268.5C 478.436,271.442 480.603,273.442 483.5,274.5C 483.5,281.833 483.5,289.167 483.5,296.5C 480.737,296.744 478.571,298.077 477,300.5C 476.833,358.17 476.333,415.836 475.5,473.5C 464.948,469.427 454.281,465.761 443.5,462.5C 442.802,453.572 440.969,444.906 438,436.5C 432.003,430.005 425.503,424.005 418.5,418.5C 416.29,412.341 417.623,407.175 422.5,403C 436.148,400.683 444.648,392.85 448,379.5C 450.594,368.281 447.428,359.114 438.5,352C 418.309,336.308 397.975,320.808 377.5,305.5C 376.167,264.5 376.167,223.5 377.5,182.5C 392.087,172.747 406.254,162.413 420,151.5C 423.296,144.447 424.463,137.114 423.5,129.5C 440.978,135.937 458.478,142.27 476,148.5C 476.333,169.833 476.667,191.167 477,212.5C 478.272,215.492 480.438,217.159 483.5,217.5 Z"/></g>
<g><path style="opacity:1" fill="#e5f0fd" d="M 69.5,135.5 C 70.2389,135.369 70.9056,135.536 71.5,136C 67.8892,145.499 66.3892,155.333 67,165.5C 70.1868,175.354 77.0202,180.187 87.5,180C 89.0488,181.214 90.2155,182.714 91,184.5C 93.9896,198.416 102.49,203.916 116.5,201C 122.141,199.064 127.808,197.231 133.5,195.5C 134.5,276.497 134.833,357.497 134.5,438.5C 117.233,443.7 100.233,449.7 83.5,456.5C 83.1667,456 82.8333,455.5 82.5,455C 83.9125,449.451 83.7458,443.951 82,438.5C 77.5,431.5 73,424.5 68.5,417.5C 73.38,414.298 77.5467,410.298 81,405.5C 83.9123,395.39 85.579,385.056 86,374.5C 91.1792,369.487 97.0125,365.32 103.5,362C 112.667,350.406 112.834,338.573 104,326.5C 96.6936,318.388 87.5269,313.888 76.5,313C 72.3673,307.239 68.8673,301.073 66,294.5C 56.3695,286.184 46.0362,278.851 35,272.5C 34.3333,231.167 34.3333,189.833 35,148.5C 46.621,144.241 58.121,139.908 69.5,135.5 Z"/></g>
<g><path style="opacity:1" fill="#e4f0fd" d="M 358.5,189.5 C 359.833,189.5 361.167,189.5 362.5,189.5C 362.5,226.167 362.5,262.833 362.5,299.5C 344.288,297.158 326.121,294.491 308,291.5C 296.089,293.413 289.755,300.413 289,312.5C 286.235,323.454 289.068,332.62 297.5,340C 303.712,343.273 310.046,346.273 316.5,349C 320.541,354.124 322.374,359.957 322,366.5C 316.047,374.788 309.714,382.788 303,390.5C 297.499,402.803 298.666,414.469 306.5,425.5C 300.833,438.167 295.167,450.833 289.5,463.5C 280.715,466.976 271.882,470.31 263,473.5C 262.333,400.167 262.333,326.833 263,253.5C 269.924,259.544 277.758,263.877 286.5,266.5C 297.597,263.587 307.43,258.254 316,250.5C 318.876,246.674 320.376,242.34 320.5,237.5C 319.531,232.842 319.031,228.176 319,223.5C 326.5,214.667 334,205.833 341.5,197C 346.872,193.607 352.538,191.107 358.5,189.5 Z"/></g>
<g><path style="opacity:1" fill="#bee0fe" d="M 148.5,202.5 C 156.867,209.7 164.367,217.7 171,226.5C 171.658,228.8 172.158,231.133 172.5,233.5C 170.161,242.181 167.828,250.848 165.5,259.5C 165.607,262.567 166.107,265.567 167,268.5C 173.667,277.167 180.333,285.833 187,294.5C 198.604,306.611 209.937,306.278 221,293.5C 225.92,288.251 229.587,282.251 232,275.5C 231.078,267.544 230.412,259.544 230,251.5C 230.833,250.667 231.667,249.833 232.5,249C 237.823,248.501 243.156,248.334 248.5,248.5C 248.833,323.503 248.5,398.503 247.5,473.5C 214.575,461.534 181.575,449.867 148.5,438.5C 148.5,359.833 148.5,281.167 148.5,202.5 Z"/></g>
<g><path style="opacity:0.971" fill="#010202" d="M 483.5,241.5 C 486.325,241.081 488.491,242.081 490,244.5C 490.667,253.167 490.667,261.833 490,270.5C 488.362,272.734 486.195,274.067 483.5,274.5C 480.603,273.442 478.436,271.442 477,268.5C 476.333,260.833 476.333,253.167 477,245.5C 478.571,243.077 480.737,241.744 483.5,241.5 Z"/></g>
<g><path style="opacity:1" fill="#a3e03a" d="M 27.5,401.5 C 27.5,393.833 27.5,386.167 27.5,378.5C 30.6748,378.16 32.8415,376.493 34,373.5C 34.1668,345.494 34.6668,317.494 35.5,289.5C 41.772,293.108 47.772,297.108 53.5,301.5C 56.9215,307.342 60.0881,313.342 63,319.5C 68.7418,325.786 75.9085,328.952 84.5,329C 90.3072,330.807 94.1405,334.64 96,340.5C 97.2618,344.909 96.4285,348.743 93.5,352C 85.7988,355.706 79.2988,360.873 74,367.5C 71.9261,377.755 70.2594,388.088 69,398.5C 65.3333,401.5 61.6667,404.5 58,407.5C 54.2207,412.401 53.554,417.734 56,423.5C 59.9396,430.436 64.273,437.103 69,443.5C 69.679,450.307 68.179,456.641 64.5,462.5C 54.6208,466.07 44.7875,469.737 35,473.5C 34.6667,450.833 34.3333,428.167 34,405.5C 32.3621,403.266 30.1955,401.933 27.5,401.5 Z"/></g>
<g><path style="opacity:1" fill="#a3e03a" d="M 305.5,305.5 C 324.499,308.166 343.499,310.833 362.5,313.5C 362.5,355.167 362.5,396.833 362.5,438.5C 344.233,444.034 326.233,450.367 308.5,457.5C 308.167,457.167 307.833,456.833 307.5,456.5C 312.963,446.248 317.296,435.582 320.5,424.5C 320.333,423.167 320.167,421.833 320,420.5C 317.398,416.294 315.064,411.961 313,407.5C 312.333,405.5 312.333,403.5 313,401.5C 318.953,393.212 325.286,385.212 332,377.5C 337.027,365.597 336.361,353.93 330,342.5C 328.5,341 327,339.5 325.5,338C 319.288,334.727 312.954,331.727 306.5,329C 305.667,328.167 304.833,327.333 304,326.5C 302.43,320.947 302.097,315.281 303,309.5C 303.662,308.016 304.496,306.683 305.5,305.5 Z"/></g>
<g><path style="opacity:1" fill="#77cc00" d="M 376.5,322.5 C 396.365,336.522 415.531,351.522 434,367.5C 434.704,369.278 435.204,371.112 435.5,373C 434.146,376.877 432.646,380.71 431,384.5C 423.179,386.658 416.179,390.325 410,395.5C 402.983,404.676 401.65,414.676 406,425.5C 412.667,431.5 419.333,437.5 426,443.5C 427.762,447.776 428.262,452.109 427.5,456.5C 410.91,450.303 394.243,444.303 377.5,438.5C 376.5,399.839 376.167,361.172 376.5,322.5 Z"/></g>
</svg>
