<?xml version="1.0" encoding="UTF-8"?>
<!DOCTYPE svg PUBLIC "-//W3C//DTD SVG 1.1//EN" "http://www.w3.org/Graphics/SVG/1.1/DTD/svg11.dtd">
<svg xmlns="http://www.w3.org/2000/svg" version="1.1" width="512px" height="512px" style="shape-rendering:geometricPrecision; text-rendering:geometricPrecision; image-rendering:optimizeQuality; fill-rule:evenodd; clip-rule:evenodd" xmlns:xlink="http://www.w3.org/1999/xlink">
<g><path style="opacity:0.943" fill="#010000" d="M 122.5,-0.5 C 126.167,-0.5 129.833,-0.5 133.5,-0.5C 148.45,5.0592 154.283,15.7259 151,31.5C 142.974,47.3983 130.808,51.5649 114.5,44C 100.231,30.9972 99.8974,17.6639 113.5,4C 116.592,2.45406 119.592,0.95406 122.5,-0.5 Z"/></g>
<g><path style="opacity:1" fill="#f6969c" d="M 123.5,15.5 C 132.656,13.832 136.823,17.4987 136,26.5C 131.814,33.5384 126.814,34.2051 121,28.5C 118.606,23.5272 119.44,19.1938 123.5,15.5 Z"/></g>
<g><path style="opacity:0.947" fill="#020101" d="M 184.5,42.5 C 211.376,43.9334 222.876,57.9334 219,84.5C 210.461,103.017 196.294,109.517 176.5,104C 159.271,95.0361 153.438,81.2028 159,62.5C 164.158,51.5019 172.658,44.8352 184.5,42.5 Z"/></g>
<g><path style="opacity:1" fill="#f9999f" d="M 183.5,58.5 C 200.669,57.8406 207.169,65.8406 203,82.5C 196.799,90.8145 188.966,92.6479 179.5,88C 172.203,81.6619 170.703,74.1619 175,65.5C 177.464,62.519 180.297,60.1856 183.5,58.5 Z"/></g>
<g><path style="opacity:0.946" fill="#010201" d="M 354.5,65.5 C 382.036,65.5345 394.203,79.2011 391,106.5C 382.886,125.807 368.719,132.64 348.5,127C 332.259,118.68 326.092,105.513 330,87.5C 334.286,75.7076 342.453,68.3743 354.5,65.5 Z"/></g>
<g><path style="opacity:1" fill="#9af4d0" d="M 354.5,81.5 C 371.866,80.0242 378.699,87.6909 375,104.5C 369.176,113.771 361.343,115.938 351.5,111C 344.044,104.356 342.544,96.5223 347,87.5C 349.114,84.8792 351.614,82.8792 354.5,81.5 Z"/></g>
<g><path style="opacity:0.972" fill="#020303" d="M 511.5,342.5 C 511.5,354.167 511.5,365.833 511.5,377.5C 500.337,444.17 462.337,487.337 397.5,507C 389.064,508.738 380.73,510.238 372.5,511.5C 364.167,511.5 355.833,511.5 347.5,511.5C 344.167,510.167 340.833,510.167 337.5,511.5C 238.167,511.5 138.833,511.5 39.5,511.5C 18.7142,506.715 5.38091,494.048 -0.5,473.5C -0.5,466.833 -0.5,460.167 -0.5,453.5C 1.8108,446.54 4.97747,439.874 9,433.5C 47.6667,373.5 86.3333,313.5 125,253.5C 125.333,243.5 125.667,233.5 126,223.5C 126.863,219.482 129.363,217.482 133.5,217.5C 136.707,218.026 139.207,219.692 141,222.5C 141.667,233.833 141.667,245.167 141,256.5C 100.916,319.67 60.5828,382.67 20,445.5C 10.8843,463.256 14.0509,478.422 29.5,491C 33.531,493.455 37.8644,495.121 42.5,496C 140.001,496.832 237.334,496.666 334.5,495.5C 348.45,493.054 357.616,485.054 362,471.5C 363.526,462.679 362.192,454.346 358,446.5C 331.268,406.195 305.435,365.362 280.5,324C 280.863,321.808 281.863,319.974 283.5,318.5C 286.877,317.099 290.21,317.265 293.5,319C 298.291,326.081 302.958,333.248 307.5,340.5C 311.389,338.726 315.055,336.726 318.5,334.5C 342.399,321.345 367.733,317.512 394.5,323C 408.754,327.963 423.087,332.63 437.5,337C 447.137,338.79 456.803,338.956 466.5,337.5C 473.599,337.417 478.432,340.75 481,347.5C 483.553,382.16 473.72,412.66 451.5,439C 448.408,439.736 445.408,439.569 442.5,438.5C 440.707,435.741 440.207,432.741 441,429.5C 458.879,407.002 467.379,381.336 466.5,352.5C 456.494,352.666 446.494,352.5 436.5,352C 432.131,351.158 427.797,350.158 423.5,349C 413.566,345.133 403.566,341.467 393.5,338C 369.31,332.41 346.643,335.91 325.5,348.5C 322.738,349.38 320.071,350.546 317.5,352C 316.483,353.049 316.316,354.216 317,355.5C 334.667,382.833 352.333,410.167 370,437.5C 375.455,445.696 377.955,454.696 377.5,464.5C 381.6,463.808 385.6,462.808 389.5,461.5C 401.028,458.569 411.695,453.736 421.5,447C 424.611,446.388 427.277,447.221 429.5,449.5C 431.002,453.159 430.668,456.659 428.5,460C 416.472,468.014 403.472,473.848 389.5,477.5C 384.428,478.114 379.428,479.114 374.5,480.5C 372.377,485.921 369.377,490.754 365.5,495C 371.754,495.892 377.754,495.392 383.5,493.5C 437.975,482.532 473.808,450.532 491,397.5C 505.122,340.541 490.289,292.707 446.5,254C 433.556,243.69 419.223,235.69 403.5,230C 402.874,229.25 402.374,228.416 402,227.5C 400.952,211.735 401.452,196.068 403.5,180.5C 404.827,175.95 406.16,171.283 407.5,166.5C 376.174,165.5 344.84,165.167 313.5,165.5C 315.018,173.571 316.851,181.571 319,189.5C 319.961,202.595 319.628,215.595 318,228.5C 301.832,235.665 286.665,244.499 272.5,255C 268.318,259.015 264.318,263.182 260.5,267.5C 266.333,276.5 272.167,285.5 278,294.5C 278.795,298.566 277.628,301.899 274.5,304.5C 271.193,304.937 268.193,304.27 265.5,302.5C 255.417,287.336 245.584,272.003 236,256.5C 235.5,226.835 235.333,197.169 235.5,167.5C 225.5,167.5 215.5,167.5 205.5,167.5C 184.167,167.5 162.833,167.5 141.5,167.5C 141.666,176.839 141.5,186.173 141,195.5C 139.293,198.59 136.793,200.59 133.5,201.5C 129.756,201.046 127.256,199.046 126,195.5C 125.667,185.5 125.333,175.5 125,165.5C 113.563,157.085 110.896,146.418 117,133.5C 120.531,128.295 125.364,125.129 131.5,124C 169.5,123.333 207.5,123.333 245.5,124C 256.771,126.689 262.771,133.855 263.5,145.5C 263.249,154.246 259.416,160.912 252,165.5C 251.167,194.506 251.333,223.506 252.5,252.5C 267.209,238.058 284.043,226.725 303,218.5C 303.667,209.167 303.667,199.833 303,190.5C 300.719,182.26 298.885,173.927 297.5,165.5C 297.985,158.695 301.318,153.862 307.5,151C 325,150.833 342.5,150.667 360,150.5C 378.563,150.352 397.063,150.852 415.5,152C 420.242,155.483 422.575,160.15 422.5,166C 421.066,174.904 419.233,183.738 417,192.5C 416.333,201.167 416.333,209.833 417,218.5C 471.021,242.686 502.521,284.019 511.5,342.5 Z"/></g>
<g><path style="opacity:1" fill="#9ae4fa" d="M 132.5,139.5 C 169.835,139.333 207.168,139.5 244.5,140C 247.349,142.559 248.183,145.726 247,149.5C 246.097,150.701 244.931,151.535 243.5,152C 206.833,152.667 170.167,152.667 133.5,152C 128.624,148.231 128.29,144.064 132.5,139.5 Z"/></g>
<g><path style="opacity:1" fill="#9ae3f9" d="M 403.5,180.5 C 395.528,179.169 387.194,178.502 378.5,178.5C 370.167,178.667 361.833,178.833 353.5,179C 345.572,181.927 340.406,187.427 338,195.5C 339.375,209.77 339.709,224.103 339,238.5C 337.604,242.792 335.104,246.292 331.5,249C 314.085,256.761 298.585,267.261 285,280.5C 295.421,298.799 306.588,316.799 318.5,334.5C 315.055,336.726 311.389,338.726 307.5,340.5C 302.958,333.248 298.291,326.081 293.5,319C 290.21,317.265 286.877,317.099 283.5,318.5C 281.281,313.291 278.281,308.624 274.5,304.5C 277.628,301.899 278.795,298.566 278,294.5C 272.167,285.5 266.333,276.5 260.5,267.5C 264.318,263.182 268.318,259.015 272.5,255C 286.665,244.499 301.832,235.665 318,228.5C 319.628,215.595 319.961,202.595 319,189.5C 316.851,181.571 315.018,173.571 313.5,165.5C 344.84,165.167 376.174,165.5 407.5,166.5C 406.16,171.283 404.827,175.95 403.5,180.5 Z"/></g>
<g><path style="opacity:1" fill="#c3e8f6" d="M 205.5,167.5 C 205.667,198.835 205.5,230.168 205,261.5C 195.367,279.147 184.867,296.314 173.5,313C 174.056,313.383 174.389,313.883 174.5,314.5C 159.217,309.478 143.55,307.644 127.5,309C 126.069,309.465 124.903,310.299 124,311.5C 93.5827,359.337 62.916,407.003 32,454.5C 27.2395,465.552 30.0728,474.052 40.5,480C 138.166,480.5 235.833,480.667 333.5,480.5C 249.332,481.167 164.999,481.833 80.5,482.5C 81.9728,486.779 83.9728,490.779 86.5,494.5C 169.164,495.5 251.831,495.833 334.5,495.5C 237.334,496.666 140.001,496.832 42.5,496C 37.8644,495.121 33.531,493.455 29.5,491C 14.0509,478.422 10.8843,463.256 20,445.5C 60.5828,382.67 100.916,319.67 141,256.5C 141.667,245.167 141.667,233.833 141,222.5C 139.207,219.692 136.707,218.026 133.5,217.5C 133.5,212.167 133.5,206.833 133.5,201.5C 136.793,200.59 139.293,198.59 141,195.5C 141.5,186.173 141.666,176.839 141.5,167.5C 162.833,167.5 184.167,167.5 205.5,167.5 Z"/></g>
<g><path style="opacity:1" fill="#ddf4fb" d="M 205.5,167.5 C 215.5,167.5 225.5,167.5 235.5,167.5C 235.333,197.169 235.5,226.835 236,256.5C 245.584,272.003 255.417,287.336 265.5,302.5C 268.193,304.27 271.193,304.937 274.5,304.5C 278.281,308.624 281.281,313.291 283.5,318.5C 281.863,319.974 280.863,321.808 280.5,324C 305.435,365.362 331.268,406.195 358,446.5C 362.192,454.346 363.526,462.679 362,471.5C 357.616,485.054 348.45,493.054 334.5,495.5C 251.831,495.833 169.164,495.5 86.5,494.5C 83.9728,490.779 81.9728,486.779 80.5,482.5C 164.999,481.833 249.332,481.167 333.5,480.5C 344.317,477.221 348.817,469.888 347,458.5C 316.916,410.664 286.583,362.997 256,315.5C 254.207,314.03 252.207,313.03 250,312.5C 231.364,318.975 212.197,321.142 192.5,319C 186.402,317.809 180.402,316.309 174.5,314.5C 174.389,313.883 174.056,313.383 173.5,313C 184.867,296.314 195.367,279.147 205,261.5C 205.5,230.168 205.667,198.835 205.5,167.5 Z"/></g>
<g><path style="opacity:1" fill="#c6edfb" d="M 403.5,180.5 C 401.452,196.068 400.952,211.735 402,227.5C 402.374,228.416 402.874,229.25 403.5,230C 419.223,235.69 433.556,243.69 446.5,254C 490.289,292.707 505.122,340.541 491,397.5C 473.808,450.532 437.975,482.532 383.5,493.5C 382.957,493.44 382.624,493.107 382.5,492.5C 385.05,487.477 387.383,482.477 389.5,477.5C 403.472,473.848 416.472,468.014 428.5,460C 430.668,456.659 431.002,453.159 429.5,449.5C 434.127,446.209 438.46,442.542 442.5,438.5C 445.408,439.569 448.408,439.736 451.5,439C 473.72,412.66 483.553,382.16 481,347.5C 478.432,340.75 473.599,337.417 466.5,337.5C 456.803,338.956 447.137,338.79 437.5,337C 423.087,332.63 408.754,327.963 394.5,323C 367.733,317.512 342.399,321.345 318.5,334.5C 306.588,316.799 295.421,298.799 285,280.5C 298.585,267.261 314.085,256.761 331.5,249C 335.104,246.292 337.604,242.792 339,238.5C 339.709,224.103 339.375,209.77 338,195.5C 340.406,187.427 345.572,181.927 353.5,179C 361.833,178.833 370.167,178.667 378.5,178.5C 387.194,178.502 395.528,179.169 403.5,180.5 Z"/></g>
<g><path style="opacity:1" fill="#070404" d="M 174.5,314.5 C 180.402,316.309 186.402,317.809 192.5,319C 212.197,321.142 231.364,318.975 250,312.5C 252.207,313.03 254.207,314.03 256,315.5C 286.583,362.997 316.916,410.664 347,458.5C 348.817,469.888 344.317,477.221 333.5,480.5C 235.833,480.667 138.166,480.5 40.5,480C 30.0728,474.052 27.2395,465.552 32,454.5C 62.916,407.003 93.5827,359.337 124,311.5C 124.903,310.299 126.069,309.465 127.5,309C 143.55,307.644 159.217,309.478 174.5,314.5 Z"/></g>
<g><path style="opacity:1" fill="#fa8088" d="M 163.5,327.5 C 161.683,331.801 159.35,335.801 156.5,339.5C 141.449,343.888 134.782,353.888 136.5,369.5C 130.86,378.816 125.194,388.149 119.5,397.5C 106.989,399.711 94.6553,402.711 82.5,406.5C 82.1667,406.167 81.8333,405.833 81.5,405.5C 98.8333,378.5 116.167,351.5 133.5,324.5C 137.459,323.34 141.459,323.173 145.5,324C 151.793,324.392 157.793,325.559 163.5,327.5 Z"/></g>
<g><path style="opacity:1" fill="#fa999f" d="M 163.5,327.5 C 190.645,335.937 217.978,336.604 245.5,329.5C 248.456,332.051 250.956,335.051 253,338.5C 262.833,354.167 272.667,369.833 282.5,385.5C 263.229,396.868 242.562,404.368 220.5,408C 201.256,409.486 182.59,406.819 164.5,400C 149.609,396.804 134.609,395.971 119.5,397.5C 125.194,388.149 130.86,378.816 136.5,369.5C 142.908,385.201 154.242,390.368 170.5,385C 183.814,376.382 186.98,364.882 180,350.5C 174.069,342.953 166.235,339.286 156.5,339.5C 159.35,335.801 161.683,331.801 163.5,327.5 Z"/></g>
<g><path style="opacity:1" fill="#6cf2c0" d="M 442.5,438.5 C 438.46,442.542 434.127,446.209 429.5,449.5C 427.277,447.221 424.611,446.388 421.5,447C 411.695,453.736 401.028,458.569 389.5,461.5C 389.49,452.302 387.323,443.635 383,435.5C 364.667,406.833 346.333,378.167 328,349.5C 327.329,348.748 326.496,348.414 325.5,348.5C 346.643,335.91 369.31,332.41 393.5,338C 403.566,341.467 413.566,345.133 423.5,349C 427.797,350.158 432.131,351.158 436.5,352C 446.494,352.5 456.494,352.666 466.5,352.5C 467.379,381.336 458.879,407.002 441,429.5C 440.207,432.741 440.707,435.741 442.5,438.5 Z"/></g>
<g><path style="opacity:1" fill="#060303" d="M 156.5,339.5 C 166.235,339.286 174.069,342.953 180,350.5C 186.98,364.882 183.814,376.382 170.5,385C 154.242,390.368 142.908,385.201 136.5,369.5C 134.782,353.888 141.449,343.888 156.5,339.5 Z"/></g>
<g><path style="opacity:1" fill="#13df9b" d="M 325.5,348.5 C 326.496,348.414 327.329,348.748 328,349.5C 346.333,378.167 364.667,406.833 383,435.5C 387.323,443.635 389.49,452.302 389.5,461.5C 385.6,462.808 381.6,463.808 377.5,464.5C 377.955,454.696 375.455,445.696 370,437.5C 352.333,410.167 334.667,382.833 317,355.5C 316.316,354.216 316.483,353.049 317.5,352C 320.071,350.546 322.738,349.38 325.5,348.5 Z"/></g>
<g><path style="opacity:1" fill="#f57e86" d="M 157.5,354.5 C 166.015,354.844 169.515,359.177 168,367.5C 162.171,374.476 156.838,374.143 152,366.5C 151.333,364.167 151.333,361.833 152,359.5C 153.73,357.598 155.563,355.931 157.5,354.5 Z"/></g>
<g><path style="opacity:1" fill="#020503" d="M 393.5,365.5 C 410.842,364.018 422.675,371.352 429,387.5C 430.316,413.183 418.15,425.017 392.5,423C 373.59,414.959 367.423,401.125 374,381.5C 378.518,373.67 385.018,368.336 393.5,365.5 Z"/></g>
<g><path style="opacity:1" fill="#12de9a" d="M 395.5,380.5 C 410.341,380.165 416.175,387.165 413,401.5C 408.435,407.802 402.268,409.969 394.5,408C 386.127,402.199 384.293,394.699 389,385.5C 391.326,383.934 393.492,382.268 395.5,380.5 Z"/></g>
<g><path style="opacity:1" fill="#fc8189" d="M 79.5,465.5 C 80.1934,460.107 82.0268,455.107 85,450.5C 92,439.833 99,429.167 106,418.5C 106.528,417.184 106.028,416.517 104.5,416.5C 122.128,410.907 140.128,410.073 158.5,414C 170.531,418.091 182.864,421.091 195.5,423C 215.788,424.782 235.455,422.116 254.5,415C 266.741,409.629 278.908,404.129 291,398.5C 304.667,419.5 318.333,440.5 332,461.5C 332.49,462.793 332.657,464.127 332.5,465.5C 248.167,465.5 163.833,465.5 79.5,465.5 Z"/></g>
<g><path style="opacity:1" fill="#fa6671" d="M 104.5,416.5 C 106.028,416.517 106.528,417.184 106,418.5C 99,429.167 92,439.833 85,450.5C 82.0268,455.107 80.1934,460.107 79.5,465.5C 67.8333,465.5 56.1667,465.5 44.5,465.5C 44.4914,463.692 44.9914,462.025 46,460.5C 54.0301,448.635 61.8634,436.635 69.5,424.5C 81.0655,421.358 92.7322,418.692 104.5,416.5 Z"/></g>
<g><path style="opacity:1" fill="#95dbf0" d="M 389.5,477.5 C 387.383,482.477 385.05,487.477 382.5,492.5C 382.624,493.107 382.957,493.44 383.5,493.5C 377.754,495.392 371.754,495.892 365.5,495C 369.377,490.754 372.377,485.921 374.5,480.5C 379.428,479.114 384.428,478.114 389.5,477.5 Z"/></g>
</svg>
